<svg width="64" height="64" viewBox="0 0 64 64" fill="none" xmlns="http://www.w3.org/2000/svg">
  <defs>
    <linearGradient id="gw-blue" x1="8" y1="10" x2="34" y2="52" gradientUnits="userSpaceOnUse">
      <stop stop-color="#1D4ED8"/>
      <stop offset="1" stop-color="#60A5FA"/>
    </linearGradient>
    <linearGradient id="gw-green" x1="30" y1="10" x2="58" y2="54" gradientUnits="userSpaceOnUse">
      <stop stop-color="#0F766E"/>
      <stop offset="1" stop-color="#22C55E"/>
    </linearGradient>
  </defs>
  <path d="M28.8 22.4C26.2 19.6 22.4 18.1 18.7 18.1C10.8 18.1 5.3 23.8 5.3 32C5.3 40.3 10.9 45.9 19 45.9C25.3 45.9 29.9 42.2 31.2 36.5H20.5V29.2H40C40.2 31.3 40.1 33.4 39.6 35.5C37.6 45.4 29.7 53.1 18.8 53.1C7.7 53.1 0 45.2 0 32C0 18.8 7.7 10.9 18.7 10.9C25.4 10.9 31.1 13.7 34.9 18.8L28.8 22.4Z" fill="url(#gw-blue)"/>
  <path d="M29.8 12H38.1L43.8 36.5L50.7 12H58.7L63.9 52H56L53.4 26.9L46.2 52H39.9L33.6 26.9L30.6 52H22.8L29.8 12Z" fill="url(#gw-green)"/>
</svg>
